<svg width="21" height="20" viewBox="0 0 21 20" fill="none" xmlns="http://www.w3.org/2000/svg">
<path d="M10.3 20H10.2C8.8285 19.9896 7.4729 19.7056 6.21254 19.1647C4.95219 18.6238 3.81242 17.8369 2.85998 16.85C1.09382 14.9613 0.0898585 12.4854 0.0418441 9.89997C-0.00617028 7.31458 0.905167 4.80304 2.59998 2.85005C3.69186 1.62639 5.06451 0.686128 6.59998 0.110047C6.77914 0.0411056 6.97436 0.0251902 7.16232 0.0642015C7.35029 0.103213 7.52305 0.195502 7.65998 0.330047C7.78679 0.459369 7.87611 0.620707 7.91838 0.796832C7.96065 0.972957 7.95429 1.15725 7.89998 1.33005C7.35193 2.83098 7.24335 4.4571 7.58698 6.01757C7.9306 7.57804 8.71217 9.00814 9.83998 10.14C10.9783 11.2644 12.4118 12.0433 13.9745 12.3867C15.5372 12.73 17.1652 12.6237 18.67 12.08C18.8491 12.017 19.0424 12.0062 19.2274 12.0491C19.4124 12.0919 19.5814 12.1864 19.7146 12.3218C19.8478 12.4571 19.9398 12.6275 19.9797 12.8131C20.0196 12.9988 20.0058 13.1919 19.94 13.37C19.4291 14.7338 18.6311 15.9717 17.6 17C16.6408 17.9563 15.5021 18.7137 14.2494 19.2285C12.9966 19.7434 11.6544 20.0056 10.3 20V20Z" fill="#334155"/>
</svg>
