<svg width="24" height="24" viewBox="0 0 24 24" fill="none" xmlns="http://www.w3.org/2000/svg">
<path d="M12 6C12.2652 6 12.5196 5.89464 12.7071 5.70711C12.8946 5.51957 13 5.26522 13 5V3C13 2.73478 12.8946 2.48043 12.7071 2.29289C12.5196 2.10536 12.2652 2 12 2C11.7348 2 11.4804 2.10536 11.2929 2.29289C11.1054 2.48043 11 2.73478 11 3V5C11 5.26522 11.1054 5.51957 11.2929 5.70711C11.4804 5.89464 11.7348 6 12 6Z" fill="#E2E8F0"/>
<path d="M21 11H19C18.7348 11 18.4804 11.1054 18.2929 11.2929C18.1054 11.4804 18 11.7348 18 12C18 12.2652 18.1054 12.5196 18.2929 12.7071C18.4804 12.8946 18.7348 13 19 13H21C21.2652 13 21.5196 12.8946 21.7071 12.7071C21.8946 12.5196 22 12.2652 22 12C22 11.7348 21.8946 11.4804 21.7071 11.2929C21.5196 11.1054 21.2652 11 21 11Z" fill="#E2E8F0"/>
<path d="M6 12C6 11.7348 5.89464 11.4804 5.70711 11.2929C5.51957 11.1054 5.26522 11 5 11H3C2.73478 11 2.48043 11.1054 2.29289 11.2929C2.10536 11.4804 2 11.7348 2 12C2 12.2652 2.10536 12.5196 2.29289 12.7071C2.48043 12.8946 2.73478 13 3 13H5C5.26522 13 5.51957 12.8946 5.70711 12.7071C5.89464 12.5196 6 12.2652 6 12Z" fill="#E2E8F0"/>
<path d="M6.21828 5.00019C6.02334 4.81587 5.76317 4.71653 5.49499 4.72403C5.22682 4.73153 4.9726 4.84526 4.78828 5.04019C4.60395 5.23513 4.50461 5.4953 4.51211 5.76348C4.51962 6.03165 4.63334 6.28587 4.82828 6.47019L6.26828 7.86019C6.36491 7.9535 6.47936 8.02639 6.60478 8.07449C6.7302 8.1226 6.86403 8.14494 6.99828 8.14019C7.13298 8.13968 7.26619 8.11195 7.38992 8.05868C7.51364 8.00541 7.62533 7.92769 7.71828 7.83019C7.90453 7.64283 8.00907 7.38938 8.00907 7.12519C8.00907 6.86101 7.90453 6.60755 7.71828 6.42019L6.21828 5.00019Z" fill="#E2E8F0"/>
<path d="M17.0016 8.14024C17.259 8.13921 17.5062 8.03892 17.6916 7.86024L19.1316 6.47024C19.3072 6.28669 19.4065 6.04316 19.4091 5.7891C19.4117 5.53505 19.3175 5.28953 19.1457 5.10241C18.9738 4.91528 18.7372 4.80058 18.4838 4.7816C18.2305 4.76263 17.9794 4.8408 17.7816 5.00024L16.3416 6.42024C16.1553 6.6076 16.0508 6.86105 16.0508 7.12524C16.0508 7.38942 16.1553 7.64287 16.3416 7.83024C16.5147 8.01295 16.7504 8.12365 17.0016 8.14024Z" fill="#E2E8F0"/>
<path d="M12 18C11.7348 18 11.4804 18.1054 11.2929 18.2929C11.1054 18.4804 11 18.7348 11 19V21C11 21.2652 11.1054 21.5196 11.2929 21.7071C11.4804 21.8946 11.7348 22 12 22C12.2652 22 12.5196 21.8946 12.7071 21.7071C12.8946 21.5196 13 21.2652 13 21V19C13 18.7348 12.8946 18.4804 12.7071 18.2929C12.5196 18.1054 12.2652 18 12 18Z" fill="#E2E8F0"/>
<path d="M17.7309 16.1401C17.5399 15.9558 17.2836 15.8548 17.0182 15.8595C16.7528 15.8642 16.5002 15.9741 16.3159 16.1651C16.1315 16.356 16.0306 16.6124 16.0353 16.8778C16.04 17.1431 16.1499 17.3958 16.3409 17.5801L17.7809 19.0001C17.9662 19.1788 18.2134 19.2791 18.4709 19.2801C18.6049 19.2809 18.7376 19.2547 18.8613 19.2032C18.985 19.1516 19.0971 19.0758 19.1909 18.9801C19.2846 18.8871 19.359 18.7765 19.4098 18.6547C19.4605 18.5328 19.4867 18.4021 19.4867 18.2701C19.4867 18.1381 19.4605 18.0074 19.4098 17.8855C19.359 17.7637 19.2846 17.6531 19.1909 17.5601L17.7309 16.1401Z" fill="#E2E8F0"/>
<path d="M6.27095 16.1399L4.83095 17.5299C4.73723 17.6228 4.66283 17.7334 4.61206 17.8553C4.56129 17.9772 4.53516 18.1079 4.53516 18.2399C4.53516 18.3719 4.56129 18.5026 4.61206 18.6244C4.66283 18.7463 4.73723 18.8569 4.83095 18.9499C4.92475 19.0456 5.03681 19.1214 5.1605 19.173C5.28418 19.2245 5.41696 19.2507 5.55095 19.2499C5.79747 19.252 6.03607 19.1629 6.22095 18.9999L7.66095 17.6099C7.85191 17.4255 7.96182 17.1729 7.96651 16.9076C7.9712 16.6422 7.87028 16.3858 7.68595 16.1949C7.50163 16.0039 7.249 15.894 6.98363 15.8893C6.71827 15.8846 6.46191 15.9855 6.27095 16.1699V16.1399Z" fill="#E2E8F0"/>
<path d="M12 8C11.2089 8 10.4355 8.2346 9.77772 8.67412C9.11993 9.11365 8.60723 9.73836 8.30448 10.4693C8.00173 11.2002 7.92252 12.0044 8.07686 12.7804C8.2312 13.5563 8.61216 14.269 9.17157 14.8284C9.73098 15.3878 10.4437 15.7688 11.2196 15.9231C11.9956 16.0775 12.7998 15.9983 13.5307 15.6955C14.2616 15.3928 14.8864 14.8801 15.3259 14.2223C15.7654 13.5645 16 12.7911 16 12C16 10.9391 15.5786 9.92172 14.8284 9.17157C14.0783 8.42143 13.0609 8 12 8Z" fill="#E2E8F0"/>
</svg>
