<svg width="168" height="40" viewBox="0 0 168 40" fill="none" xmlns="http://www.w3.org/2000/svg">
<path d="M9.87737 30.5469C9.41556 30.5047 8.94996 30.5522 8.50619 30.6869C8.41318 30.7234 8.32834 30.7781 8.25659 30.8477C8.18484 30.9173 8.1276 31.0005 8.08819 31.0924C8.04878 31.1843 8.02797 31.2831 8.02699 31.3831C8.026 31.4831 8.04485 31.5823 8.08244 31.6749C8.68608 33.095 10.6169 32.023 11.3565 31.1429C15.8298 24.8544 5.99168 15.0697 10.5969 7.74521C11.3259 6.69327 12.2763 5.81396 13.3813 5.16914C14.4864 4.52432 15.7193 4.12967 16.9931 4.01294C30.705 3.31689 34.9465 30.9269 9.89336 30.5469H9.87737ZM9.68549 25.5585C14.2228 25.3185 17.281 23.4583 19.0719 20.1901C20.619 17.4579 20.4911 12.2975 17.9925 11.0615C17.4769 10.81 16.8884 10.7519 16.3335 10.8974C15.1343 11.2775 14.8264 12.4135 14.8184 13.8377C14.8704 20.7902 19.4877 30.7389 11.6483 35.3272C10.5505 35.9606 9.25413 36.156 8.01857 35.8741C6.783 35.5923 5.69932 34.854 4.98428 33.8071C2.36984 29.8428 5.31608 25.7105 9.68549 25.5585Z" fill="#7443FE"/>
<path d="M15.7807 30.041C15.7527 30.041 15.1408 30.161 13.8528 30.349C13.1586 30.4626 12.4562 30.5188 11.7528 30.517C11.6306 30.7307 11.497 30.9376 11.3528 31.137C10.9706 31.5711 10.4983 31.9165 9.96875 32.149L11.8288 35.205C13.7782 34.0752 15.1995 32.2179 15.7807 30.041Z" fill="url(#paint0_linear_1576_3615)"/>
<path d="M11.293 20.977L15.525 19.917C15.721 21.137 15.925 22.377 16.049 23.605C15.4926 24.0094 14.8862 24.3401 14.245 24.589C13.6407 24.8337 13.019 25.033 12.385 25.185C12.1205 23.7584 11.7556 22.3522 11.293 20.977Z" fill="url(#paint1_linear_1576_3615)"/>
<path d="M49.2142 19.6583C48.6071 18.6077 47.7391 17.7316 46.694 17.1147C45.5967 16.4693 44.3427 16.1385 43.0697 16.1589C41.8016 16.1358 40.5503 16.452 39.4454 17.0747C38.3997 17.6659 37.5299 18.5245 36.9253 19.5624C36.2973 20.6565 35.978 21.9005 36.0012 23.1618V35.9998H39.7455V28.9729C40.0276 29.1996 40.3287 29.4017 40.6455 29.5768C41.4539 30.0172 42.3612 30.2443 43.2817 30.2367C44.5321 30.2617 45.7661 29.9495 46.854 29.3328C47.8711 28.7374 48.7023 27.8705 49.2542 26.8292C49.8488 25.6982 50.1474 24.4352 50.1222 23.1578C50.1376 21.9312 49.8241 20.7228 49.2142 19.6583ZM45.9699 24.9055C45.6966 25.4189 45.2922 25.8508 44.7978 26.1573C44.2785 26.4759 43.679 26.6396 43.0697 26.6292C42.4694 26.639 41.879 26.4751 41.3696 26.1573C40.869 25.8497 40.4557 25.4186 40.1695 24.9055C39.8817 24.3773 39.7309 23.7853 39.7309 23.1838C39.7309 22.5823 39.8817 21.9903 40.1695 21.4621C40.4538 20.9507 40.8677 20.5231 41.3696 20.2223C41.8825 19.9144 42.4715 19.7564 43.0697 19.7663C43.6769 19.7554 44.2751 19.9133 44.7978 20.2223C45.2936 20.5219 45.6987 20.9503 45.9699 21.4621C46.2459 21.994 46.39 22.5845 46.39 23.1838C46.39 23.7831 46.2459 24.3736 45.9699 24.9055Z" fill="#1B1464"/>
<path d="M56.3704 29.8571H52.6301V22.2143C52.6104 21.1537 52.8263 20.1019 53.2622 19.1348C53.6733 18.2399 54.3436 17.4889 55.1863 16.9791C56.1583 16.421 57.2663 16.1441 58.3866 16.1792C58.8201 16.1788 59.2527 16.2189 59.6787 16.2992C60.0672 16.3694 60.4468 16.4821 60.8108 16.6352V20.3506C60.493 20.1533 60.146 20.0076 59.7827 19.9187C59.4384 19.8337 59.0853 19.7894 58.7306 19.7867C58.4085 19.7692 58.0863 19.8212 57.7861 19.9392C57.4858 20.0572 57.2145 20.2384 56.9905 20.4706C56.5447 20.989 56.3168 21.6597 56.3544 22.3423L56.3704 29.8571Z" fill="#1B1464"/>
<path d="M69.0567 30.209C67.7916 30.2274 66.5458 29.8966 65.4565 29.2531C64.4073 28.6323 63.5353 27.7523 62.9243 26.6975C62.3108 25.6209 61.9883 24.4031 61.9883 23.1641C61.9883 21.925 62.3108 20.7073 62.9243 19.6306C63.5403 18.5788 64.4164 17.7029 65.4685 17.087C66.5657 16.4629 67.8064 16.1348 69.0687 16.1348C70.3311 16.1348 71.5718 16.4629 72.669 17.087C73.7173 17.709 74.589 18.5887 75.2012 19.6426C75.8147 20.7171 76.1374 21.9329 76.1374 23.1701C76.1374 24.4073 75.8147 25.6231 75.2012 26.6975C74.5879 27.7546 73.7114 28.6349 72.657 29.2531C71.5664 29.8936 70.3215 30.2241 69.0567 30.209ZM69.0567 26.6295C69.666 26.6399 70.2655 26.4762 70.7849 26.1576C71.2868 25.8515 71.7003 25.4201 71.985 24.9058C72.2728 24.3776 72.4236 23.7856 72.4236 23.1841C72.4236 22.5825 72.2728 21.9906 71.985 21.4623C71.7003 20.948 71.2868 20.5167 70.7849 20.2105C70.2651 19.8934 69.6656 19.731 69.0567 19.7426C68.4564 19.7329 67.866 19.8968 67.3566 20.2145C66.8551 20.5211 66.4416 20.9524 66.1565 21.4663C65.8687 21.9946 65.7179 22.5865 65.7179 23.1881C65.7179 23.7896 65.8687 24.3816 66.1565 24.9098C66.4416 25.4238 66.8551 25.8551 67.3566 26.1616C67.8664 26.478 68.4568 26.6405 69.0567 26.6295Z" fill="#1B1464"/>
<path d="M84.9808 30.209C84.0338 30.2166 83.0955 30.0287 82.2245 29.6571C81.3984 29.2975 80.6488 28.783 80.0164 28.1413C79.0399 27.1458 78.3781 25.8849 78.1134 24.5158C77.8488 23.1468 77.9931 21.7302 78.5283 20.4425C78.8783 19.6063 79.3832 18.8438 80.0164 18.1949C80.6528 17.5478 81.4098 17.0315 82.2446 16.6751C83.1151 16.305 84.0551 16.1264 85.0008 16.1512C86.2286 16.1589 87.4343 16.4782 88.505 17.0791C89.6243 17.7319 90.5037 18.7275 91.0132 19.9186L87.925 21.6423C87.6552 21.0815 87.241 20.6025 86.7249 20.2546C86.2113 19.9204 85.6094 19.7477 84.9968 19.7586C84.4102 19.751 83.8334 19.909 83.3326 20.2146C82.845 20.5172 82.4418 20.9382 82.1605 21.4384C81.8665 21.9691 81.7162 22.5674 81.7245 23.1741C81.7227 23.7601 81.8683 24.3372 82.1479 24.8523C82.4275 25.3673 82.8322 25.8038 83.3246 26.1217C83.8216 26.4376 84.3999 26.6016 84.9888 26.5936C85.6038 26.6048 86.2073 26.4261 86.7169 26.0817C87.2271 25.7338 87.6401 25.2617 87.917 24.7099L91.0052 26.4336C90.4957 27.6247 89.6163 28.6203 88.497 29.2731C87.4228 29.877 86.2131 30.1989 84.9808 30.209Z" fill="#1B1464"/>
<path d="M105.892 22.8062C105.904 21.6388 105.636 20.4855 105.112 19.4427C104.606 18.4345 103.836 17.5828 102.884 16.9791C101.821 16.3334 100.594 16.011 99.3513 16.0512C98.1068 16.0264 96.8811 16.3581 95.819 17.0071C94.8054 17.6298 93.9767 18.5121 93.4188 19.5627C92.8447 20.6858 92.551 21.9312 92.5628 23.1924C92.5747 24.4537 92.8917 25.6934 93.4869 26.8055C94.0866 27.8586 94.9675 28.724 96.031 29.3051C97.1494 29.9182 98.4081 30.2297 99.6833 30.209C100.969 30.2371 102.235 29.8956 103.332 29.2251C104.389 28.5476 105.224 27.574 105.732 26.4256L102.856 24.9458C102.571 25.5388 102.117 26.0343 101.551 26.3696C100.974 26.7139 100.312 26.8912 99.6393 26.8815C98.9679 26.9001 98.3049 26.7281 97.7272 26.3856C97.1898 26.0508 96.7595 25.5693 96.4871 24.9978C96.3253 24.6573 96.2148 24.2948 96.1591 23.922H105.864L105.892 22.8062ZM96.3471 21.8103C96.447 21.3716 96.6303 20.9561 96.8871 20.5865C97.1429 20.2163 97.4865 19.9154 97.8872 19.7106C98.3333 19.4903 98.8259 19.3806 99.3233 19.3907C99.8079 19.38 100.288 19.4856 100.723 19.6986C101.119 19.8987 101.459 20.1943 101.711 20.5585C101.966 20.9313 102.124 21.3614 102.172 21.8103H96.3471Z" fill="#1B1464"/>
<path d="M118.387 10.3999L118.367 17.4068C118.085 17.1787 117.782 16.9766 117.463 16.8029C116.65 16.3667 115.741 16.1399 114.819 16.143C113.575 16.1197 112.346 16.426 111.259 17.0309C110.231 17.615 109.39 18.4791 108.834 19.5225C108.238 20.6529 107.938 21.9161 107.962 23.1939C107.95 24.4276 108.273 25.6415 108.898 26.7053C109.51 27.7604 110.382 28.6415 111.431 29.2649C112.52 29.9085 113.766 30.2392 115.031 30.2208C116.302 30.24 117.557 29.9242 118.667 29.3049C119.721 28.7128 120.595 27.848 121.199 26.8013C121.824 25.7059 122.143 24.4628 122.123 23.2019V10.4039L118.387 10.3999ZM117.951 24.9056C117.667 25.4205 117.253 25.852 116.751 26.1574C116.234 26.4774 115.635 26.6412 115.027 26.6294C114.429 26.632 113.843 26.4626 113.339 26.1414C112.837 25.8349 112.424 25.4036 112.139 24.8896C111.85 24.3714 111.699 23.7873 111.703 23.1939C111.699 22.5878 111.849 21.9908 112.139 21.4582C112.419 20.9408 112.834 20.5084 113.339 20.2064C113.852 19.8985 114.441 19.7405 115.039 19.7504C115.635 19.7354 116.224 19.8874 116.739 20.1891C117.253 20.4909 117.673 20.9304 117.951 21.4582C118.243 21.9898 118.393 22.5875 118.387 23.1939C118.395 23.7929 118.245 24.3834 117.951 24.9056Z" fill="#1B1464"/>
<path d="M134.599 16.543V22.706C134.606 23.3529 134.499 23.9959 134.283 24.6057C134.097 25.1511 133.765 25.6352 133.323 26.0055C132.862 26.3691 132.287 26.5589 131.699 26.5414C131.121 26.5617 130.554 26.3761 130.099 26.0175C129.655 25.6485 129.321 25.1641 129.135 24.6177C128.921 24.0171 128.814 23.3836 128.819 22.746V16.543H125.075V23.1659C125.061 24.3906 125.318 25.6033 125.827 26.7174C126.305 27.7677 127.08 28.6558 128.055 29.273C129.151 29.9316 130.413 30.2594 131.691 30.2168C132.979 30.2615 134.253 29.9338 135.36 29.273C136.331 28.657 137.103 27.7738 137.584 26.7294C138.097 25.6126 138.354 24.395 138.336 23.1659V16.543H134.599Z" fill="#1B1464"/>
<path d="M148.394 16.3069C147.969 16.2266 147.538 16.1865 147.106 16.1869C145.979 16.1495 144.864 16.4265 143.885 16.9868C143.044 17.4978 142.374 18.2484 141.961 19.1425C141.527 20.1102 141.311 21.1616 141.329 22.222V29.8648H145.073V22.35C145.036 21.6681 145.263 20.9981 145.705 20.4783C145.93 20.2468 146.201 20.066 146.501 19.948C146.802 19.83 147.124 19.7777 147.446 19.7944C147.802 19.7968 148.156 19.8411 148.502 19.9264C148.865 20.0161 149.212 20.1618 149.53 20.3583V16.6429C149.164 16.4898 148.784 16.3771 148.394 16.3069Z" fill="#1B1464"/>
<path d="M164.001 22.8062C164.014 21.6392 163.748 20.4859 163.225 19.4427C162.72 18.4345 161.949 17.5828 160.997 16.9791C159.935 16.3334 158.707 16.011 157.465 16.0512C156.22 16.0264 154.994 16.3581 153.932 17.0071C152.919 17.6298 152.09 18.5121 151.532 19.5627C150.958 20.6858 150.664 21.9312 150.676 23.1924C150.688 24.4537 151.005 25.6934 151.6 26.8055C152.199 27.8595 153.08 28.7252 154.144 29.3051C155.263 29.9182 156.521 30.2297 157.797 30.209C159.082 30.2371 160.348 29.8956 161.445 29.2251C162.502 28.5476 163.337 27.574 163.845 26.4256L160.969 24.9458C160.684 25.5388 160.231 26.0343 159.665 26.3696C159.087 26.7139 158.425 26.8912 157.753 26.8815C157.081 26.9001 156.418 26.7281 155.84 26.3856C155.303 26.0508 154.873 25.5693 154.6 24.9978C154.439 24.6573 154.328 24.2948 154.272 23.922H163.973L164.001 22.8062ZM154.456 21.8103C154.56 21.3719 154.744 20.9568 155 20.5865C155.256 20.2163 155.6 19.9154 156 19.7106C156.447 19.4903 156.939 19.3806 157.437 19.3907C157.921 19.38 158.401 19.4856 158.837 19.6986C159.231 19.8942 159.57 20.1841 159.825 20.5425C160.079 20.9153 160.237 21.3454 160.285 21.7943L154.456 21.8103Z" fill="#1B1464"/>
<defs>
<linearGradient id="paint0_linear_1576_3615" x1="15.5607" y1="29.777" x2="10.7007" y2="33.853" gradientUnits="userSpaceOnUse">
<stop stop-color="#1F006A"/>
<stop offset="1" stop-color="#6B37FE" stop-opacity="0"/>
</linearGradient>
<linearGradient id="paint1_linear_1576_3615" x1="14.705" y1="24.405" x2="13.7961" y2="20.401" gradientUnits="userSpaceOnUse">
<stop stop-color="#1F006A"/>
<stop offset="1" stop-color="#6B37FE" stop-opacity="0"/>
</linearGradient>
</defs>
</svg>
