<svg width="24" height="24" viewBox="0 0 24 24" fill="currentColor" xmlns="http://www.w3.org/2000/svg">
  <path
    d="M8.9676 5.87125C6.9276 8.16125 5.5276 11.4512 5.3976 11.7612L3.1376 10.7912C2.4876 10.5112 2.3276 9.66125 2.8276 9.16125L5.8376 6.15125C6.3076 5.68125 6.9876 5.47125 7.6476 5.60125L8.9676 5.87125ZM10.4576 16.0312C10.7576 16.3312 11.1976 16.4112 11.5776 16.2312C12.7376 15.6912 15.2276 14.4212 16.8376 12.8112C21.4276 8.22124 21.4676 4.48125 21.1976 2.88125C21.1622 2.68471 21.0676 2.5037 20.9264 2.36249C20.7852 2.22128 20.6041 2.12664 20.4076 2.09125C18.8076 1.82125 15.0676 1.86125 10.4776 6.45125C8.8676 8.06125 7.6076 10.5512 7.0576 11.7112C6.8776 12.0912 6.9676 12.5412 7.2576 12.8312L10.4576 16.0312ZM17.4276 14.3312C15.1376 16.3712 11.8476 17.7712 11.5376 17.9012L12.5076 20.1612C12.7876 20.8112 13.6376 20.9712 14.1376 20.4712L17.1476 17.4612C17.6176 16.9912 17.8276 16.3112 17.6976 15.6512L17.4276 14.3312ZM8.7176 16.9312C8.81457 17.4156 8.79046 17.9163 8.64742 18.3891C8.50437 18.8618 8.24681 19.2919 7.8976 19.6412C7.1276 20.4112 4.7376 20.9812 3.1876 21.2812C2.4976 21.4112 1.8876 20.8012 2.0176 20.1112C2.3176 18.5612 2.8776 16.1712 3.6576 15.4012C4.00691 15.052 4.43703 14.7945 4.90978 14.6514C5.38254 14.5084 5.8833 14.4843 6.3676 14.5812C7.5376 14.8012 8.4976 15.7612 8.7176 16.9312ZM12.7776 8.52125C12.7776 7.42125 13.6776 6.52125 14.7776 6.52125C15.8776 6.52125 16.7776 7.42125 16.7776 8.52125C16.7776 9.62125 15.8776 10.5212 14.7776 10.5212C13.6776 10.5212 12.7776 9.62125 12.7776 8.52125Z"
    fill="white" />
</svg>