<svg width="38" height="34" viewBox="0 0 38 34" fill="none" xmlns="http://www.w3.org/2000/svg">
<path d="M29.611 17.6427L30.7534 14.8688L29.611 17.6427ZM15.4363 21.5924L17.3156 19.2539L15.4363 21.5924ZM18.4348 8.26228L21.3111 7.40965L18.4348 8.26228ZM33.6998 33.1945C30.7416 32.6957 30.7414 32.6964 30.7413 32.697C30.7413 32.6971 30.7412 32.6977 30.7412 32.698C30.7411 32.6986 30.741 32.699 30.741 32.6992C30.7409 32.6996 30.741 32.6992 30.7412 32.6981C30.7415 32.6958 30.7424 32.6906 30.7437 32.6824C30.7463 32.666 30.7508 32.6379 30.7567 32.5989C30.7685 32.5208 30.7862 32.399 30.8074 32.2392C30.8497 31.9189 30.9052 31.4489 30.9542 30.8735C31.0531 29.7123 31.121 28.1712 31.0153 26.5875C30.9079 24.9761 30.6308 23.489 30.1403 22.3459C29.6611 21.2289 29.0874 20.6716 28.4685 20.4167L30.7534 14.8688C33.2723 15.9062 34.7785 17.939 35.6543 19.9802C36.5189 21.9954 36.8717 24.2347 37.002 26.1882C37.1342 28.1693 37.0476 30.0316 36.9326 31.3825C36.8746 32.0631 36.8084 32.6264 36.7556 33.0254C36.7292 33.2252 36.7061 33.3845 36.689 33.4976C36.6804 33.5542 36.6733 33.5993 36.6681 33.6321C36.6654 33.6485 36.6632 33.6619 36.6616 33.6721C36.6607 33.6773 36.66 33.6816 36.6594 33.6851C36.6591 33.6869 36.6589 33.6885 36.6586 33.6899C36.6585 33.6905 36.6584 33.6914 36.6583 33.6918C36.6582 33.6926 36.658 33.6934 33.6998 33.1945ZM28.4685 20.4167C28.1418 20.2821 27.7502 20.2471 26.9819 20.5827C26.1045 20.9658 25.1908 21.6276 23.9287 22.54C22.8413 23.3261 21.325 24.4333 19.6937 24.982C18.8158 25.2773 17.7863 25.4579 16.6683 25.3057C15.527 25.1504 14.4811 24.6734 13.5571 23.9309L17.3156 19.2539C17.4746 19.3817 17.519 19.3662 17.4775 19.3605C17.4592 19.358 17.5387 19.3765 17.7809 19.2951C18.3897 19.0903 19.1577 18.5854 20.4135 17.6776C21.4945 16.896 22.9827 15.7819 24.5805 15.0841C26.2874 14.3387 28.4441 13.9177 30.7534 14.8688L28.4685 20.4167ZM13.5571 23.9309C12.6901 23.2341 11.9713 22.3638 11.5633 21.2845C11.151 20.1937 11.145 19.1244 11.3305 18.184C11.663 16.4974 12.692 14.9499 13.3839 13.9162C14.2149 12.6747 14.8549 11.7749 15.2744 10.844C15.6584 9.99192 15.6711 9.49455 15.5585 9.11491L21.3111 7.40965C21.9811 9.66985 21.4617 11.7179 20.7446 13.3092C20.063 14.8217 19.0329 16.2633 18.3701 17.2535C17.5682 18.4516 17.2799 19.0263 17.2171 19.3448C17.2049 19.4069 17.2316 19.3108 17.1757 19.163C17.1242 19.0267 17.0856 19.0691 17.3156 19.2539L13.5571 23.9309ZM15.5585 9.11491C15.0412 7.36988 14.3228 7.01033 13.8581 6.87456C13.1275 6.66107 11.9663 6.74587 10.4049 7.29766C8.91136 7.8255 7.42883 8.64585 6.27829 9.37441C5.71363 9.73198 5.25176 10.0528 4.93563 10.2808C4.77798 10.3944 4.65777 10.4842 4.5804 10.5427C4.54175 10.572 4.51389 10.5934 4.49751 10.6061C4.48933 10.6125 4.48402 10.6166 4.48168 10.6184C4.48051 10.6193 4.48008 10.6197 4.4804 10.6194C4.48056 10.6193 4.48091 10.619 4.48145 10.6186C4.48172 10.6184 4.48227 10.618 4.4824 10.6178C4.483 10.6174 4.48364 10.6169 2.62463 8.26228C0.765629 5.90769 0.766369 5.90711 0.767159 5.90648C0.767487 5.90622 0.76833 5.90556 0.768986 5.90504C0.770306 5.904 0.771824 5.90281 0.773537 5.90146C0.776966 5.89877 0.781185 5.89546 0.786182 5.89155C0.796181 5.88374 0.809296 5.87352 0.825439 5.86103C0.857727 5.83604 0.90218 5.8019 0.958096 5.75956C1.06986 5.67492 1.22783 5.5572 1.42636 5.41404C1.82258 5.12834 2.38505 4.73795 3.06833 4.30527C4.41369 3.45334 6.32149 2.37711 8.40566 1.64055C10.422 0.92795 13.026 0.380553 15.5409 1.11536C18.3217 1.92788 20.3291 4.09711 21.3111 7.40965L15.5585 9.11491Z" fill="#683CE5"/>
</svg>
